<svg xmlns="http://www.w3.org/2000/svg" viewBox="0 0 48 48" fill="none" role="img" aria-label="Fundez — Prototipo 5: Facilities GPS fondo negro">
  <defs>
    <linearGradient id="p5Bg" x1="4" y1="4" x2="44" y2="44" gradientUnits="userSpaceOnUse">
      <stop stop-color="#141414"/>
      <stop offset="1" stop-color="#050505"/>
    </linearGradient>
    <linearGradient id="p5Sheen" x1="24" y1="2" x2="24" y2="46" gradientUnits="userSpaceOnUse">
      <stop stop-color="#FFFFFF" stop-opacity="0.1"/>
      <stop offset="1" stop-color="#FFFFFF" stop-opacity="0"/>
    </linearGradient>
    <linearGradient id="p5Nut" x1="20" y1="14" x2="28" y2="24" gradientUnits="userSpaceOnUse">
      <stop stop-color="#FDE68A"/>
      <stop offset="1" stop-color="#F59E0B"/>
    </linearGradient>
  </defs>

  <rect x="1" y="1" width="46" height="46" rx="14" fill="url(#p5Bg)"/>
  <rect x="1" y="1" width="46" height="46" rx="14" fill="url(#p5Sheen)"/>

  <path d="M24 11c-3.8 0-7 3-7 6.8 0 4.7 7 13.2 7 13.2s7-8.5 7-13.2C31 14 27.8 11 24 11z" stroke="#FFFFFF" stroke-width="2.25" stroke-linejoin="round" fill="none"/>

  <polygon points="24,14.5 27.8,16.7 27.8,21.3 24,23.5 20.2,21.3 20.2,16.7" fill="url(#p5Nut)" stroke="#FFFFFF" stroke-width="1.5" stroke-linejoin="round"/>

  <circle cx="24" cy="31.2" r="1.35" fill="#FFFFFF"/>
</svg>
