<svg xmlns="http://www.w3.org/2000/svg" viewBox="0 0 48 48" fill="none" role="img" aria-label="Fundez — Prototipo 7: Hogar y ojo que todo lo ve">
  <defs>
    <linearGradient id="p7Bg" x1="4" y1="4" x2="44" y2="44" gradientUnits="userSpaceOnUse">
      <stop stop-color="#3B82F6"/>
      <stop offset="1" stop-color="#1D4ED8"/>
    </linearGradient>
    <linearGradient id="p7Sheen" x1="24" y1="4" x2="24" y2="44" gradientUnits="userSpaceOnUse">
      <stop stop-color="#FFFFFF" stop-opacity="0.22"/>
      <stop offset="1" stop-color="#FFFFFF" stop-opacity="0"/>
    </linearGradient>
  </defs>
  <rect x="1" y="1" width="46" height="46" rx="14" fill="url(#p7Bg)"/>
  <rect x="1" y="1" width="46" height="46" rx="14" fill="url(#p7Sheen)"/>

  <!-- Hogar -->
  <path d="M24 11.5L35.5 21v13.5c0 1.1-.9 2-2 2H14.5c-1.1 0-2-.9-2-2V21L24 11.5z" stroke="#FFFFFF" stroke-width="2" stroke-linejoin="round" fill="none"/>

  <!-- Ojo que todo lo ve (interior) -->
  <g transform="translate(24, 25.5)">
    <!-- Triįngulo superior -->
    <path d="M0 -5.5L4.2 1.2H-4.2L0 -5.5z" stroke="#FFFFFF" stroke-width="1.2" stroke-linejoin="round" fill="none" opacity="0.9"/>
    <!-- Contorno del ojo -->
    <path d="M-5.5 2.5c2.2-2.8 5.3-4.2 5.5-4.2s3.3 1.4 5.5 4.2" stroke="#FFFFFF" stroke-width="1.45" stroke-linecap="round" fill="none"/>
    <path d="M-5.5 2.5c2.2 2.8 5.3 4.2 5.5 4.2s3.3-1.4 5.5-4.2" stroke="#FFFFFF" stroke-width="1.45" stroke-linecap="round" fill="none"/>
    <!-- Iris y pupila -->
    <circle cx="0" cy="2.5" r="2.1" stroke="#FFFFFF" stroke-width="1.25" fill="none"/>
    <circle cx="0" cy="2.5" r="0.85" fill="#FFFFFF"/>
  </g>

  <circle cx="33.5" cy="14" r="1.15" fill="#FFFFFF" opacity="0.85"/>
</svg>
