<svg xmlns="http://www.w3.org/2000/svg" viewBox="0 0 48 48" fill="none" role="img" aria-label="Fundez — Prototipo 6: Hogar y napoleón">
  <defs>
    <linearGradient id="p6Bg" x1="4" y1="4" x2="44" y2="44" gradientUnits="userSpaceOnUse">
      <stop stop-color="#3B82F6"/>
      <stop offset="1" stop-color="#1D4ED8"/>
    </linearGradient>
    <linearGradient id="p6Sheen" x1="24" y1="4" x2="24" y2="44" gradientUnits="userSpaceOnUse">
      <stop stop-color="#FFFFFF" stop-opacity="0.22"/>
      <stop offset="1" stop-color="#FFFFFF" stop-opacity="0"/>
    </linearGradient>
  </defs>
  <rect x="1" y="1" width="46" height="46" rx="14" fill="url(#p6Bg)"/>
  <rect x="1" y="1" width="46" height="46" rx="14" fill="url(#p6Sheen)"/>

  <!-- Hogar (misma forma que logo actual) -->
  <path d="M24 11.5L35.5 21v13.5c0 1.1-.9 2-2 2H14.5c-1.1 0-2-.9-2-2V21L24 11.5z" stroke="#FFFFFF" stroke-width="2" stroke-linejoin="round" fill="none"/>

  <!-- Tuerca -->
  <polygon points="24,28.4 26.3,29.6 26.3,32 24,33.2 21.7,32 21.7,29.6" stroke="#FFFFFF" stroke-width="1.35" stroke-linejoin="round" fill="none"/>

  <!-- Llave Stilson (napoleón) girando la tuerca -->
  <path d="M18.6 29.1l6.2-.9 3.4 1.7" stroke="#FFFFFF" stroke-width="1.45" stroke-linecap="round" stroke-linejoin="round" fill="none"/>
  <path d="M19 31.9l6.4-.6 3 1.5" stroke="#FFFFFF" stroke-width="1.45" stroke-linecap="round" stroke-linejoin="round" fill="none"/>
  <path d="M22.2 30.6V36.2" stroke="#FFFFFF" stroke-width="1.65" stroke-linecap="round"/>
  <circle cx="20.3" cy="29.6" r="0.95" fill="#FFFFFF"/>

  <circle cx="33.5" cy="14" r="1.15" fill="#FFFFFF" opacity="0.85"/>
</svg>
