<svg xmlns="http://www.w3.org/2000/svg" viewBox="0 0 48 48" fill="none" role="img" aria-label="Fundez  Prototipo 1: Sopapo y pilares">
  <defs>
    <linearGradient id="p1Sheen" x1="24" y1="2" x2="24" y2="46" gradientUnits="userSpaceOnUse">
      <stop stop-color="#FFFFFF" stop-opacity="0.08"/>
      <stop offset="1" stop-color="#FFFFFF" stop-opacity="0"/>
    </linearGradient>
  </defs>
  <!-- Fondo negro -->
  <rect x="1" y="1" width="46" height="46" rx="14" fill="#0A0A0A"/>
  <rect x="1" y="1" width="46" height="46" rx="14" fill="url(#p1Sheen)"/>

  <!-- Sopapo: cabeza ancha + mango -->
  <path d="M14 10.5c0-1.1.9-2 2-2h16c1.1 0 2 .9 2 2v11.5c0 2.2-1.8 4-4 4H18c-2.2 0-4-1.8-4-4V10.5z" stroke="#E8D5B5" stroke-width="1.6" fill="#1A1410"/>
  <path d="M22 26v11.5c0 .8.6 1.5 1.4 1.5h1.2c.8 0 1.4-.7 1.4-1.5V26" stroke="#C4A574" stroke-width="1.5" stroke-linecap="round" fill="none"/>

  <!-- 4 pilares dentro del sopapo -->
  <g stroke="#F5F0E8" stroke-width="1.1" stroke-linecap="round">
    <line x1="17.5" y1="20" x2="17.5" y2="14.5"/>
    <line x1="17" y1="14.5" x2="18" y2="14.5"/>
    <line x1="21" y1="20" x2="21" y2="14.5"/>
    <line x1="20.5" y1="14.5" x2="21.5" y2="14.5"/>
    <line x1="24.5" y1="20" x2="24.5" y2="14.5"/>
    <line x1="24" y1="14.5" x2="25" y2="14.5"/>
    <line x1="28" y1="20" x2="28" y2="14.5"/>
    <line x1="27.5" y1="14.5" x2="28.5" y2="14.5"/>
  </g>
  <!-- Base de los pilares -->
  <line x1="16.5" y1="20" x2="29" y2="20" stroke="#D4A853" stroke-width="1.2" stroke-linecap="round" opacity="0.9"/>
</svg>
